<svg id="visual" viewBox="0 0 900 600" width="900" height="600" xmlns="http://www.w3.org/2000/svg" xmlns:xlink="http://www.w3.org/1999/xlink" version="1.1"><path d="M0 412L21.5 422.7C43 433.3 86 454.7 128.8 453.3C171.7 452 214.3 428 257.2 429.8C300 431.7 343 459.3 385.8 459.8C428.7 460.3 471.3 433.7 514.2 424.5C557 415.3 600 423.7 642.8 441.3C685.7 459 728.3 486 771.2 485.7C814 485.3 857 457.7 878.5 443.8L900 430L900 601L878.5 601C857 601 814 601 771.2 601C728.3 601 685.7 601 642.8 601C600 601 557 601 514.2 601C471.3 601 428.7 601 385.8 601C343 601 300 601 257.2 601C214.3 601 171.7 601 128.8 601C86 601 43 601 21.5 601L0 601Z" fill="#FF9671" stroke-linecap="round" stroke-linejoin="miter"></path></svg>